<svg xmlns="http://www.w3.org/2000/svg" xmlns:xlink="http://www.w3.org/1999/xlink" width="1200" zoomAndPan="magnify" viewBox="0 0 900 225" height="300" preserveAspectRatio="xMidYMid meet" version="1.0"><defs><g/></defs><rect x="-90" width="1080" fill="#ffffff" y="-22.5" height="270" fill-opacity="1"/><rect x="-90" width="1080" fill="#ffffff" y="-22.5" height="270" fill-opacity="1"/><g fill="#2a4d9b" fill-opacity="1"><g transform="translate(17.455508, 153.942913)"><g><path d="M 60.34375 -84.375 L 60.34375 -26.921875 C 60.34375 -18.023438 57.835938 -11.171875 52.828125 -6.359375 C 47.816406 -1.554688 41.066406 0.84375 32.578125 0.84375 C 23.679688 0.84375 16.546875 -1.675781 11.171875 -6.71875 C 5.804688 -11.769531 3.125 -18.945312 3.125 -28.25 L 23.5625 -28.25 C 23.5625 -24.71875 24.28125 -22.050781 25.71875 -20.25 C 27.164062 -18.445312 29.25 -17.546875 31.96875 -17.546875 C 34.457031 -17.546875 36.378906 -18.347656 37.734375 -19.953125 C 39.097656 -21.554688 39.78125 -23.878906 39.78125 -26.921875 L 39.78125 -84.375 Z M 60.34375 -84.375 "/></g></g></g><g fill="#2a4d9b" fill-opacity="1"><g transform="translate(82.710975, 153.942913)"><g><path d="M 37.984375 0.96875 C 31.410156 0.96875 25.5 -0.429688 20.25 -3.234375 C 15 -6.046875 10.867188 -10.054688 7.859375 -15.265625 C 4.859375 -20.472656 3.359375 -26.5625 3.359375 -33.53125 C 3.359375 -40.425781 4.878906 -46.5 7.921875 -51.75 C 10.972656 -57 15.144531 -61.023438 20.4375 -63.828125 C 25.726562 -66.628906 31.65625 -68.03125 38.21875 -68.03125 C 44.789062 -68.03125 50.722656 -66.628906 56.015625 -63.828125 C 61.304688 -61.023438 65.472656 -57 68.515625 -51.75 C 71.554688 -46.5 73.078125 -40.425781 73.078125 -33.53125 C 73.078125 -26.644531 71.535156 -20.578125 68.453125 -15.328125 C 65.367188 -10.078125 61.160156 -6.046875 55.828125 -3.234375 C 50.503906 -0.429688 44.554688 0.96875 37.984375 0.96875 Z M 37.984375 -16.828125 C 41.910156 -16.828125 45.253906 -18.269531 48.015625 -21.15625 C 50.785156 -24.039062 52.171875 -28.164062 52.171875 -33.53125 C 52.171875 -38.90625 50.828125 -43.035156 48.140625 -45.921875 C 45.453125 -48.804688 42.144531 -50.25 38.21875 -50.25 C 34.21875 -50.25 30.894531 -48.820312 28.25 -45.96875 C 25.601562 -43.125 24.28125 -38.976562 24.28125 -33.53125 C 24.28125 -28.164062 25.582031 -24.039062 28.1875 -21.15625 C 30.789062 -18.269531 34.054688 -16.828125 37.984375 -16.828125 Z M 37.984375 -16.828125 "/></g></g></g><g fill="#2a4d9b" fill-opacity="1"><g transform="translate(155.056926, 153.942913)"><g><path d="M 73.6875 -67.078125 L 73.6875 0 L 53.125 0 L 53.125 -9.140625 C 51.039062 -6.171875 48.21875 -3.785156 44.65625 -1.984375 C 41.09375 -0.179688 37.144531 0.71875 32.8125 0.71875 C 27.6875 0.71875 23.160156 -0.421875 19.234375 -2.703125 C 15.304688 -4.984375 12.257812 -8.285156 10.09375 -12.609375 C 7.9375 -16.941406 6.859375 -22.035156 6.859375 -27.890625 L 6.859375 -67.078125 L 27.28125 -67.078125 L 27.28125 -30.65625 C 27.28125 -26.164062 28.441406 -22.675781 30.765625 -20.1875 C 33.097656 -17.707031 36.222656 -16.46875 40.140625 -16.46875 C 44.148438 -16.46875 47.316406 -17.707031 49.640625 -20.1875 C 51.960938 -22.675781 53.125 -26.164062 53.125 -30.65625 L 53.125 -67.078125 Z M 73.6875 -67.078125 "/></g></g></g><g fill="#2a4d9b" fill-opacity="1"><g transform="translate(231.849451, 153.942913)"><g><path d="M 28 -55.890625 C 30.40625 -59.578125 33.410156 -62.484375 37.015625 -64.609375 C 40.628906 -66.734375 44.640625 -67.796875 49.046875 -67.796875 L 49.046875 -46.03125 L 43.390625 -46.03125 C 38.265625 -46.03125 34.414062 -44.925781 31.84375 -42.71875 C 29.28125 -40.519531 28 -36.65625 28 -31.125 L 28 0 L 7.453125 0 L 7.453125 -67.078125 L 28 -67.078125 Z M 28 -55.890625 "/></g></g></g><g fill="#2a4d9b" fill-opacity="1"><g transform="translate(279.078223, 153.942913)"><g><path d="M 48.328125 -67.796875 C 56.171875 -67.796875 62.4375 -65.25 67.125 -60.15625 C 71.820312 -55.070312 74.171875 -48.082031 74.171875 -39.1875 L 74.171875 0 L 53.734375 0 L 53.734375 -36.421875 C 53.734375 -40.910156 52.570312 -44.394531 50.25 -46.875 C 47.925781 -49.363281 44.800781 -50.609375 40.875 -50.609375 C 36.945312 -50.609375 33.816406 -49.363281 31.484375 -46.875 C 29.160156 -44.394531 28 -40.910156 28 -36.421875 L 28 0 L 7.453125 0 L 7.453125 -67.078125 L 28 -67.078125 L 28 -58.171875 C 30.082031 -61.140625 32.882812 -63.484375 36.40625 -65.203125 C 39.9375 -66.929688 43.910156 -67.796875 48.328125 -67.796875 Z M 48.328125 -67.796875 "/></g></g></g><g fill="#2a4d9b" fill-opacity="1"><g transform="translate(355.870748, 153.942913)"><g><path d="M 70.671875 -34.625 C 70.671875 -32.695312 70.550781 -30.691406 70.3125 -28.609375 L 23.796875 -28.609375 C 24.117188 -24.441406 25.460938 -21.253906 27.828125 -19.046875 C 30.191406 -16.847656 33.097656 -15.75 36.546875 -15.75 C 41.671875 -15.75 45.234375 -17.910156 47.234375 -22.234375 L 69.109375 -22.234375 C 67.992188 -17.828125 65.972656 -13.859375 63.046875 -10.328125 C 60.117188 -6.804688 56.453125 -4.039062 52.046875 -2.03125 C 47.640625 -0.03125 42.710938 0.96875 37.265625 0.96875 C 30.691406 0.96875 24.835938 -0.429688 19.703125 -3.234375 C 14.578125 -6.046875 10.570312 -10.054688 7.6875 -15.265625 C 4.800781 -20.472656 3.359375 -26.5625 3.359375 -33.53125 C 3.359375 -40.507812 4.78125 -46.601562 7.625 -51.8125 C 10.476562 -57.019531 14.46875 -61.023438 19.59375 -63.828125 C 24.71875 -66.628906 30.609375 -68.03125 37.265625 -68.03125 C 43.753906 -68.03125 49.519531 -66.664062 54.5625 -63.9375 C 59.613281 -61.21875 63.5625 -57.332031 66.40625 -52.28125 C 69.25 -47.238281 70.671875 -41.351562 70.671875 -34.625 Z M 49.640625 -40.03125 C 49.640625 -43.550781 48.4375 -46.351562 46.03125 -48.4375 C 43.632812 -50.519531 40.628906 -51.5625 37.015625 -51.5625 C 33.578125 -51.5625 30.675781 -50.5625 28.3125 -48.5625 C 25.945312 -46.5625 24.484375 -43.71875 23.921875 -40.03125 Z M 49.640625 -40.03125 "/></g></g></g><g fill="#2a4d9b" fill-opacity="1"><g transform="translate(425.692966, 153.942913)"><g><path d="M 75.96875 -67.078125 L 33.890625 31.859375 L 11.78125 31.859375 L 27.171875 -2.28125 L -0.125 -67.078125 L 22.84375 -67.078125 L 38.34375 -25.125 L 53.734375 -67.078125 Z M 75.96875 -67.078125 "/></g></g></g><g fill="#4a5568" fill-opacity="1"><g transform="translate(497.46933, 153.942913)"><g><path d="M 51.203125 -43.15625 C 54.253906 -42.675781 57.039062 -41.429688 59.5625 -39.421875 C 62.082031 -37.421875 64.082031 -34.9375 65.5625 -31.96875 C 67.050781 -29.007812 67.796875 -25.847656 67.796875 -22.484375 C 67.796875 -18.234375 66.710938 -14.40625 64.546875 -11 C 62.378906 -7.59375 59.234375 -4.90625 55.109375 -2.9375 C 50.984375 -0.976562 46.117188 0 40.515625 0 L 9.25 0 L 9.25 -83.78125 L 39.3125 -83.78125 C 45 -83.78125 49.84375 -82.835938 53.84375 -80.953125 C 57.851562 -79.066406 60.859375 -76.519531 62.859375 -73.3125 C 64.867188 -70.113281 65.875 -66.507812 65.875 -62.5 C 65.875 -57.53125 64.53125 -53.421875 61.84375 -50.171875 C 59.15625 -46.929688 55.609375 -44.59375 51.203125 -43.15625 Z M 20.1875 -47.59375 L 38.578125 -47.59375 C 43.710938 -47.59375 47.679688 -48.796875 50.484375 -51.203125 C 53.285156 -53.609375 54.6875 -56.9375 54.6875 -61.1875 C 54.6875 -65.425781 53.285156 -68.75 50.484375 -71.15625 C 47.679688 -73.5625 43.632812 -74.765625 38.34375 -74.765625 L 20.1875 -74.765625 Z M 39.546875 -9.015625 C 44.992188 -9.015625 49.238281 -10.296875 52.28125 -12.859375 C 55.332031 -15.421875 56.859375 -18.988281 56.859375 -23.5625 C 56.859375 -28.207031 55.253906 -31.867188 52.046875 -34.546875 C 48.835938 -37.234375 44.550781 -38.578125 39.1875 -38.578125 L 20.1875 -38.578125 L 20.1875 -9.015625 Z M 39.546875 -9.015625 "/></g></g></g><g fill="#4a5568" fill-opacity="1"><g transform="translate(566.931024, 153.942913)"><g><path d="M 67.671875 -65.875 L 67.671875 0 L 56.734375 0 L 56.734375 -9.734375 C 54.648438 -6.367188 51.742188 -3.742188 48.015625 -1.859375 C 44.296875 0.0234375 40.191406 0.96875 35.703125 0.96875 C 30.566406 0.96875 25.957031 -0.09375 21.875 -2.21875 C 17.789062 -4.34375 14.566406 -7.53125 12.203125 -11.78125 C 9.835938 -16.03125 8.65625 -21.195312 8.65625 -27.28125 L 8.65625 -65.875 L 19.46875 -65.875 L 19.46875 -28.734375 C 19.46875 -22.234375 21.109375 -17.238281 24.390625 -13.75 C 27.679688 -10.269531 32.171875 -8.53125 37.859375 -8.53125 C 43.710938 -8.53125 48.320312 -10.332031 51.6875 -13.9375 C 55.050781 -17.550781 56.734375 -22.800781 56.734375 -29.6875 L 56.734375 -65.875 Z M 67.671875 -65.875 "/></g></g></g><g fill="#4a5568" fill-opacity="1"><g transform="translate(639.637516, 153.942913)"><g><path d="M 14.90625 -76.5625 C 12.820312 -76.5625 11.054688 -77.28125 9.609375 -78.71875 C 8.171875 -80.164062 7.453125 -81.929688 7.453125 -84.015625 C 7.453125 -86.097656 8.171875 -87.859375 9.609375 -89.296875 C 11.054688 -90.742188 12.820312 -91.46875 14.90625 -91.46875 C 16.90625 -91.46875 18.609375 -90.742188 20.015625 -89.296875 C 21.421875 -87.859375 22.125 -86.097656 22.125 -84.015625 C 22.125 -81.929688 21.421875 -80.164062 20.015625 -78.71875 C 18.609375 -77.28125 16.90625 -76.5625 14.90625 -76.5625 Z M 20.1875 -65.875 L 20.1875 0 L 9.25 0 L 9.25 -65.875 Z M 20.1875 -65.875 "/></g></g></g><g fill="#4a5568" fill-opacity="1"><g transform="translate(664.993892, 153.942913)"><g><path d="M 20.1875 -88.953125 L 20.1875 0 L 9.25 0 L 9.25 -88.953125 Z M 20.1875 -88.953125 "/></g></g></g><g fill="#4a5568" fill-opacity="1"><g transform="translate(690.350268, 153.942913)"><g><path d="M 5.171875 -33.171875 C 5.171875 -39.898438 6.53125 -45.804688 9.25 -50.890625 C 11.976562 -55.984375 15.722656 -59.929688 20.484375 -62.734375 C 25.253906 -65.546875 30.609375 -66.953125 36.546875 -66.953125 C 41.671875 -66.953125 46.4375 -65.769531 50.84375 -63.40625 C 55.25 -61.039062 58.613281 -57.9375 60.9375 -54.09375 L 60.9375 -88.953125 L 72 -88.953125 L 72 0 L 60.9375 0 L 60.9375 -12.375 C 58.78125 -8.445312 55.578125 -5.222656 51.328125 -2.703125 C 47.078125 -0.179688 42.109375 1.078125 36.421875 1.078125 C 30.566406 1.078125 25.253906 -0.363281 20.484375 -3.25 C 15.722656 -6.132812 11.976562 -10.179688 9.25 -15.390625 C 6.53125 -20.597656 5.171875 -26.523438 5.171875 -33.171875 Z M 60.9375 -33.0625 C 60.9375 -38.03125 59.9375 -42.351562 57.9375 -46.03125 C 55.9375 -49.71875 53.234375 -52.539062 49.828125 -54.5 C 46.421875 -56.46875 42.671875 -57.453125 38.578125 -57.453125 C 34.492188 -57.453125 30.769531 -56.488281 27.40625 -54.5625 C 24.039062 -52.644531 21.351562 -49.84375 19.34375 -46.15625 C 17.34375 -42.46875 16.34375 -38.140625 16.34375 -33.171875 C 16.34375 -28.128906 17.34375 -23.742188 19.34375 -20.015625 C 21.351562 -16.285156 24.039062 -13.4375 27.40625 -11.46875 C 30.769531 -9.507812 34.492188 -8.53125 38.578125 -8.53125 C 42.671875 -8.53125 46.421875 -9.507812 49.828125 -11.46875 C 53.234375 -13.4375 55.9375 -16.285156 57.9375 -20.015625 C 59.9375 -23.742188 60.9375 -28.09375 60.9375 -33.0625 Z M 60.9375 -33.0625 "/></g></g></g><g fill="#4a5568" fill-opacity="1"><g transform="translate(767.383157, 153.942913)"><g><path d="M 69.359375 -35.453125 C 69.359375 -33.367188 69.238281 -31.164062 69 -28.84375 L 16.34375 -28.84375 C 16.75 -22.351562 18.972656 -17.285156 23.015625 -13.640625 C 27.066406 -9.992188 31.976562 -8.171875 37.75 -8.171875 C 42.46875 -8.171875 46.410156 -9.269531 49.578125 -11.46875 C 52.742188 -13.675781 54.96875 -16.625 56.25 -20.3125 L 68.03125 -20.3125 C 66.269531 -13.976562 62.742188 -8.828125 57.453125 -4.859375 C 52.171875 -0.898438 45.601562 1.078125 37.75 1.078125 C 31.5 1.078125 25.90625 -0.320312 20.96875 -3.125 C 16.039062 -5.925781 12.175781 -9.910156 9.375 -15.078125 C 6.570312 -20.253906 5.171875 -26.25 5.171875 -33.0625 C 5.171875 -39.863281 6.53125 -45.828125 9.25 -50.953125 C 11.976562 -56.085938 15.804688 -60.035156 20.734375 -62.796875 C 25.660156 -65.566406 31.332031 -66.953125 37.75 -66.953125 C 44 -66.953125 49.523438 -65.585938 54.328125 -62.859375 C 59.140625 -60.140625 62.847656 -56.394531 65.453125 -51.625 C 68.054688 -46.851562 69.359375 -41.460938 69.359375 -35.453125 Z M 58.0625 -37.75 C 58.0625 -41.914062 57.140625 -45.5 55.296875 -48.5 C 53.453125 -51.507812 50.945312 -53.796875 47.78125 -55.359375 C 44.613281 -56.921875 41.109375 -57.703125 37.265625 -57.703125 C 31.734375 -57.703125 27.023438 -55.9375 23.140625 -52.40625 C 19.253906 -48.882812 17.03125 -44 16.46875 -37.75 Z M 58.0625 -37.75 "/></g></g></g><g fill="#4a5568" fill-opacity="1"><g transform="translate(837.686104, 153.942913)"><g><path d="M 20.1875 -55.171875 C 22.113281 -58.941406 24.859375 -61.867188 28.421875 -63.953125 C 31.992188 -66.035156 36.34375 -67.078125 41.46875 -67.078125 L 41.46875 -55.78125 L 38.578125 -55.78125 C 26.316406 -55.78125 20.1875 -49.128906 20.1875 -35.828125 L 20.1875 0 L 9.25 0 L 9.25 -65.875 L 20.1875 -65.875 Z M 20.1875 -55.171875 "/></g></g></g></svg>